{
  "asset": {
    "generator": "Khronos glTF Blender I/O v1.8.19",
    "version": "2.0"
  },
  "scene": 0,
  "scenes": [
    {
      "name": "Scene",
      "nodes": [
        0
      ]
    }
  ],
  "nodes": [
    {
      "mesh": 0,
      "name": "grass_medium_01"
    }
  ],
  "materials": [
    {
      "alphaCutoff": 0.5,
      "alphaMode": "MASK",
      "doubleSided": true,
      "name": "grass_medium_01",
      "normalTexture": {
        "index": 0
      },
      "pbrMetallicRoughness": {
        "baseColorTexture": {
          "index": 1
        },
        "metallicFactor": 0,
        "metallicRoughnessTexture": {
          "index": 2
        }
      }
    }
  ],
  "meshes": [
    {
      "name": "Plane.071",
      "primitives": [
        {
          "attributes": {
            "POSITION": 0,
            "NORMAL": 1,
            "TEXCOORD_0": 2
          },
          "indices": 3,
          "material": 0
        }
      ]
    }
  ],
  "textures": [
    {
      "sampler": 0,
      "source": 0
    },
    {
      "sampler": 0,
      "source": 1
    },
    {
      "sampler": 0,
      "source": 2
    }
  ],
  "images": [
    {
      "mimeType": "image/jpeg",
      "name": "grass_medium_01_nor_gl",
      "uri": "textures/grass_medium_01_nor_gl_1k.jpg"
    },
    {
      "mimeType": "image/jpeg",
      "name": "grass_medium_01_diff-grass_medium_01_alpha",
      "uri": "textures/grass_medium_01_diff_1k.jpg"
    },
    {
      "mimeType": "image/jpeg",
      "name": "grass_medium_01_rough",
      "uri": "textures/grass_medium_01_arm_1k.jpg"
    }
  ],
  "accessors": [
    {
      "bufferView": 0,
      "componentType": 5126,
      "count": 26820,
      "max": [
        0.7037668824195862,
        0.3169684112071991,
        0.7387055158615112
      ],
      "min": [
        -0.7527943849563599,
        -0.025613101199269295,
        -0.5577085018157959
      ],
      "type": "VEC3"
    },
    {
      "bufferView": 1,
      "componentType": 5126,
      "count": 26820,
      "type": "VEC3"
    },
    {
      "bufferView": 2,
      "componentType": 5126,
      "count": 26820,
      "type": "VEC2"
    },
    {
      "bufferView": 3,
      "componentType": 5123,
      "count": 74190,
      "type": "SCALAR"
    }
  ],
  "bufferViews": [
    {
      "buffer": 0,
      "byteLength": 321840,
      "byteOffset": 0
    },
    {
      "buffer": 0,
      "byteLength": 321840,
      "byteOffset": 321840
    },
    {
      "buffer": 0,
      "byteLength": 214560,
      "byteOffset": 643680
    },
    {
      "buffer": 0,
      "byteLength": 148380,
      "byteOffset": 858240
    }
  ],
  "samplers": [
    {
      "magFilter": 9729,
      "minFilter": 9987
    }
  ],
  "buffers": [
    {
      "byteLength": 1006620,
      "uri": "grass_medium_01.bin"
    }
  ]
}